<?xml version="1.0" encoding="utf-8"?>
<!-- Generator: Adobe Illustrator 15.0.0, SVG Export Plug-In  -->
<!DOCTYPE svg PUBLIC "-//W3C//DTD SVG 1.1//EN" "http://www.w3.org/Graphics/SVG/1.1/DTD/svg11.dtd" [
	<!ENTITY ns_flows "http://ns.adobe.com/Flows/1.0/">
]>
<svg version="1.1"
	 xmlns="http://www.w3.org/2000/svg" xmlns:xlink="http://www.w3.org/1999/xlink" xmlns:a="http://ns.adobe.com/AdobeSVGViewerExtensions/3.0/"
	 x="0px" y="0px" width="96px" height="96px" viewBox="-3.75 -0.8 96 96" enable-background="new -3.75 -0.8 96 96"
	 xml:space="preserve">
<defs>
</defs>
<path fill="#151515" d="M44.25,92.335c-9.587,0-14.75,2.065-14.75,2.065s2.221-5.16,3.393-9.146
	C34.064,81.271,35.4,74.34,35.4,74.34s-2.36,2.36-13.275,2.36C13.275,76.7,0,69.325,0,51.33C0,24.78,32.45,7.67,44.25,0
	C56.05,7.67,88.5,24.78,88.5,51.33c0,17.995-13.275,25.37-22.125,25.37C55.46,76.7,53.1,74.34,53.1,74.34s1.336,6.931,2.508,10.915
	C56.779,89.24,59,94.4,59,94.4S53.838,92.335,44.25,92.335z"/>
</svg>
